<?xml version="1.0" encoding="UTF-8" standalone="no"?>
<!-- Generator: Adobe Illustrator 18.1.1, SVG Export Plug-In . SVG Version: 6.00 Build 0)  -->

<svg
   xmlns:dc="http://purl.org/dc/elements/1.1/"
   xmlns:cc="http://creativecommons.org/ns#"
   xmlns:rdf="http://www.w3.org/1999/02/22-rdf-syntax-ns#"
   xmlns:svg="http://www.w3.org/2000/svg"
   xmlns="http://www.w3.org/2000/svg"
   xmlns:sodipodi="http://sodipodi.sourceforge.net/DTD/sodipodi-0.dtd"
   xmlns:inkscape="http://www.inkscape.org/namespaces/inkscape"
   version="1.1"
   id="Capa_1"
   x="0px"
   y="0px"
   viewBox="0 0 284.822 284.822"
   style="enable-background:new 0 0 284.822 284.822;"
   xml:space="preserve"
   inkscape:version="0.91 r13725"
   sodipodi:docname="flag.svg"><metadata
     id="metadata43"><rdf:RDF><cc:Work
         rdf:about=""><dc:format>image/svg+xml</dc:format><dc:type
           rdf:resource="http://purl.org/dc/dcmitype/StillImage" /></cc:Work></rdf:RDF></metadata><defs
     id="defs41" /><sodipodi:namedview
     pagecolor="#ffffff"
     bordercolor="#666666"
     borderopacity="1"
     objecttolerance="10"
     gridtolerance="10"
     guidetolerance="10"
     inkscape:pageopacity="0"
     inkscape:pageshadow="2"
     inkscape:window-width="1920"
     inkscape:window-height="1017"
     id="namedview39"
     showgrid="false"
     inkscape:zoom="1.6571754"
     inkscape:cx="-25.533881"
     inkscape:cy="154.78848"
     inkscape:window-x="-8"
     inkscape:window-y="-8"
     inkscape:window-maximized="1"
     inkscape:current-layer="g3" /><g
     id="g3"><g
       id="g4287"><path
         id="path5"
         d="M75.326,28.49c13.086-7.789,38.851-18.933,66.291-7.511c37.519,15.61,50.872,46.515,107.775,5.635   c4.879-3.508,8.697-1.675,8.697,4.335v106.513c0,6.01-3.307,14.462-7.854,18.389c-9.91,8.561-28.011,21.299-47.429,20.696   c-29.11-0.914-57.311-31.84-83.696-31.84c-16.845,0-33.684,8.153-43.659,14.055c-5.173,3.057-9.1,1.082-9.1-4.922V45.498   C66.357,39.493,70.164,31.563,75.326,28.49z"
         style="fill:#ffffff;stroke:#000000;stroke-width:2;stroke-miterlimit:4;stroke-dasharray:none" /><path
         inkscape:connector-curvature="0"
         id="path7"
         d="m 50.701386,0 c -6.651012,0 -12.046049,7.152 -12.046049,15.969 0,2.263 0.361328,4.411 1.005534,6.347 1.095302,3.302 2.834809,10.16 2.834809,16.165 l 0,235.463 c 0,6.005 3.675897,10.878 8.205706,10.878 4.52981,0 8.205707,-4.873 8.205707,-10.878 l 0,-235.463 c 0,-6.005 1.739507,-12.858 2.831036,-16.165 0.644206,-1.936 1.005535,-4.085 1.005535,-6.347 C 62.747436,7.158 57.35617,0 50.701386,0 Z"
         style="fill:#010002" /><path
         id="path4176"
         d="M 253.57227 56.853516 C 252.33891 56.941998 250.91727 57.517031 249.39258 58.613281 C 233.13786 70.290925 220.4407 76.103513 209.71484 78.095703 L 209.71484 110.0957 C 220.4407 108.10351 233.13786 102.29093 249.39258 90.613281 C 254.27158 87.105281 258.08984 88.939219 258.08984 94.949219 L 258.08984 62.949219 C 258.08984 58.817344 256.28566 56.658854 253.57227 56.853516 z "
         style="fill:#000000" /><path
         id="path4191"
         d="M 253.57227 120.85352 C 253.32571 120.87105 253.07156 120.90798 252.81055 120.96484 C 251.76648 121.19232 250.61233 121.73628 249.39258 122.61328 C 245.83614 125.16828 242.44954 127.44354 239.2168 129.45898 C 235.98406 131.47443 232.90499 133.22965 229.96289 134.74805 C 227.02079 136.26645 224.21578 137.54745 221.53125 138.61133 C 218.84672 139.67521 216.28229 140.52195 213.82227 141.17383 C 212.4188 141.54573 211.0535 141.84708 209.71484 142.0957 L 209.71484 176.19727 C 209.81273 176.1852 209.91395 176.1943 210.01172 176.18164 C 210.60489 176.10481 211.19632 176.01797 211.78516 175.91992 C 214.72802 175.42968 217.61414 174.67927 220.41406 173.73828 C 221.53399 173.3619 222.64095 172.95519 223.73242 172.52148 C 224.8233 172.08802 225.90018 171.62657 226.95898 171.14453 C 228.01852 170.66188 229.06203 170.15717 230.08594 169.63477 C 231.11062 169.11196 232.11576 168.57195 233.10156 168.01758 C 233.50822 167.78903 233.8953 167.54931 234.29492 167.31641 C 240.67092 163.59868 246.15479 159.37582 250.23438 155.85156 C 251.37113 154.86981 252.43127 153.6045 253.38086 152.16602 C 253.77092 151.57513 254.1375 150.95064 254.48828 150.30859 C 254.56441 150.16921 254.6446 150.03394 254.71875 149.89258 C 254.71902 149.89206 254.71848 149.89114 254.71875 149.89062 C 254.9266 149.49432 255.12674 149.09119 255.31836 148.68164 C 255.70201 147.862 256.05078 147.02019 256.36328 146.16797 C 256.51947 145.74214 256.6658 145.31558 256.80273 144.88672 C 257.07672 144.02838 257.31127 143.1684 257.50195 142.31836 C 257.59722 141.89364 257.68093 141.47214 257.75391 141.05469 C 257.82702 140.63647 257.88974 140.22402 257.93945 139.81641 C 257.98912 139.40956 258.02544 139.01009 258.05078 138.61719 C 258.07612 138.22419 258.08984 137.83852 258.08984 137.46289 L 258.08984 126.94922 C 258.08984 125.44672 257.85216 124.20446 257.41797 123.24219 C 256.98377 122.27991 256.35253 121.59851 255.57031 121.21289 C 254.98365 120.92368 254.31194 120.80091 253.57227 120.85352 z "
         style="fill:#000000" /><path
         id="path4178"
         d="M 161.96094 95.603516 L 161.96094 127.60352 C 177.60307 136.9513 190.5193 145.6885 209.7832 142.08398 L 209.7832 110.08398 C 190.5193 113.6885 177.60307 104.9513 161.96094 95.603516 z "
         style="fill:#000000" /><path
         id="path4228"
         d="M 114.45117 80.160156 C 98.016507 80.816451 83.928584 87.369939 75.326172 92.490234 C 70.164172 95.563234 66.357564 103.49305 66.351562 109.49805 L 66.351562 141.49805 C 66.357563 135.49305 70.164172 127.56323 75.326172 124.49023 C 83.929444 119.36943 98.014392 112.79997 114.45117 112.14453 L 114.45117 80.160156 z "
         style="opacity:1;fill:#000000;fill-opacity:1" /><rect
         y="0.30171791"
         x="105.29965"
         height="190.98763"
         width="51.895531"
         id="rect4197"
         style="opacity:0;fill:#0000ff;fill-opacity:1" /><path
         id="path4245"
         d="M 113.23828 16.267578 C 112.92964 16.261133 112.6261 16.268193 112.32422 16.279297 C 111.78938 16.317412 111.25393 16.354289 110.72461 16.404297 C 110.52308 16.423334 110.31985 16.438276 110.11914 16.458984 C 109.16332 16.557622 108.21565 16.672004 107.2793 16.806641 C 107.16845 16.822578 107.05978 16.842958 106.94922 16.859375 C 106.13106 16.980872 105.32167 17.117098 104.51953 17.263672 C 104.28445 17.306626 104.05006 17.349541 103.81641 17.394531 C 103.03938 17.544156 102.26853 17.704127 101.50781 17.875 C 101.38157 17.903359 101.25273 17.928118 101.12695 17.957031 C 100.25045 18.158497 99.38651 18.374936 98.533203 18.601562 C 98.32577 18.656664 98.122032 18.715007 97.916016 18.771484 C 97.267322 18.94929 96.626443 19.131714 95.992188 19.322266 C 95.742926 19.397159 95.493075 19.47211 95.246094 19.548828 C 94.916071 19.651338 94.595388 19.761596 94.269531 19.867188 C 93.33981 20.168421 92.427724 20.481592 91.533203 20.804688 C 91.243069 20.909543 90.948403 21.012288 90.662109 21.119141 C 89.601333 21.514853 88.564474 21.921534 87.558594 22.339844 C 87.310643 22.442955 87.072615 22.548172 86.828125 22.652344 C 85.989802 23.009631 85.169266 23.371527 84.373047 23.738281 C 84.128143 23.851026 83.88143 23.96479 83.640625 24.078125 C 82.698907 24.521627 81.78122 24.966931 80.904297 25.414062 C 80.750882 25.49228 80.608395 25.570254 80.457031 25.648438 C 79.80308 25.986232 79.177267 26.321326 78.5625 26.65625 C 77.422298 27.277589 76.323854 27.896398 75.326172 28.490234 C 74.358677 29.066196 73.438465 29.813025 72.582031 30.685547 C 72.296546 30.97654 72.016811 31.282262 71.746094 31.599609 C 71.204659 32.234304 70.69395 32.918429 70.21875 33.638672 C 69.981137 33.998785 69.752467 34.367604 69.533203 34.744141 C 68.939987 35.762934 68.42316 36.837556 67.980469 37.931641 C 67.93231 38.050662 67.878254 38.167627 67.832031 38.287109 C 67.831815 38.287668 67.832247 38.288504 67.832031 38.289062 C 67.790911 38.395379 67.756361 38.502757 67.716797 38.609375 C 67.152319 40.130545 66.741723 41.679863 66.527344 43.169922 C 66.412898 43.96723 66.352312 44.747422 66.351562 45.498047 L 66.351562 77.498047 C 66.357563 71.493047 70.164172 63.563234 75.326172 60.490234 C 83.929444 55.369427 98.014392 48.799971 114.45117 48.144531 L 114.45117 16.271484 C 114.05316 16.287613 113.64519 16.276075 113.23828 16.267578 z "
         style="opacity:1;fill:#000000;fill-opacity:1" /><path
         id="path4231"
         d="M 116.71875 112.08984 C 115.88089 112.09471 115.04888 112.11866 114.22266 112.1543 L 114.22266 144.94727 C 115.8481 144.80371 117.47757 144.70703 119.10938 144.70703 C 120.75843 144.70703 122.4151 144.82796 124.07812 145.05469 C 125.74116 145.28142 127.41134 145.6134 129.08789 146.03711 C 130.76444 146.46082 132.44724 146.97553 134.13672 147.56641 C 135.82619 148.15729 137.52234 148.82434 139.22461 149.55273 C 142.62915 151.00953 146.05929 152.71288 149.51172 154.54102 C 152.96422 156.36914 156.43869 158.32373 159.93555 160.28516 C 160.64034 160.68049 161.35599 161.05623 162.0625 161.45117 L 162.0625 127.66406 C 159.67114 126.23427 157.23724 124.79633 154.68555 123.37891 C 150.61859 121.11977 146.30706 118.92977 141.61719 116.97852 C 138.18719 115.55077 134.7839 114.4763 131.42773 113.70312 C 128.07157 112.92996 124.76278 112.45813 121.52344 112.23828 C 119.90376 112.12836 118.30145 112.08065 116.71875 112.08984 z "
         style="opacity:1;fill:#000000;fill-opacity:1" /><path
         id="path4268"
         d="M 116.71875 48.091797 C 115.87916 48.096784 115.0506 48.132115 114.22266 48.167969 L 114.22266 80.154297 C 122.85181 79.780947 132.13362 81.030944 141.61719 84.978516 C 149.24959 88.154024 155.86012 91.955745 162.0625 95.664062 L 162.0625 63.664062 C 155.86012 59.955745 149.24959 56.154023 141.61719 52.978516 C 133.04219 49.409141 124.63079 48.044796 116.71875 48.091797 z "
         style="opacity:1;fill:#000000;fill-opacity:1" /><path
         id="path4276"
         d="M 161.96094 31.654297 L 161.96094 63.601562 C 177.60319 72.94942 190.51904 81.68873 209.7832 78.083984 L 209.7832 46.083984 C 208.76885 46.273792 207.76941 46.433559 206.78906 46.556641 C 206.77258 46.55878 206.75471 46.564361 206.73828 46.566406 C 204.46971 46.848799 202.28793 46.95668 200.17773 46.912109 C 199.1233 46.889838 198.08564 46.828685 197.06445 46.732422 C 197.06381 46.732361 197.06315 46.732483 197.0625 46.732422 C 196.04069 46.636054 195.0354 46.50435 194.04297 46.339844 C 193.05052 46.175341 192.07278 45.977642 191.10547 45.75 C 190.1385 45.52265 189.18264 45.265937 188.23633 44.980469 C 188.23554 44.980231 188.23516 44.978754 188.23438 44.978516 C 187.28865 44.693229 186.35271 44.3807 185.42383 44.042969 C 185.42326 44.042762 185.42244 44.043175 185.42188 44.042969 C 184.49242 43.704995 183.57102 43.342199 182.6543 42.957031 C 180.82086 42.186689 179.00849 41.327617 177.20117 40.400391 C 176.29751 39.936777 175.39545 39.4558 174.49219 38.960938 C 171.78239 37.476351 169.0646 35.863516 166.2832 34.193359 C 164.90117 33.363486 163.38122 32.503469 161.96094 31.654297 z "
         style="opacity:1;fill:#000000;fill-opacity:1" /></g></g><g
     id="g9" /><g
     id="g11" /><g
     id="g13" /><g
     id="g15" /><g
     id="g17" /><g
     id="g19" /><g
     id="g21" /><g
     id="g23" /><g
     id="g25" /><g
     id="g27" /><g
     id="g29" /><g
     id="g31" /><g
     id="g33" /><g
     id="g35" /><g
     id="g37" /></svg>