<?xml version="1.0" encoding="utf-8"?>
<!-- Generator: Adobe Illustrator 19.2.1, SVG Export Plug-In . SVG Version: 6.00 Build 0)  -->
<svg version="1.1" id="Capa_1" xmlns="http://www.w3.org/2000/svg" xmlns:xlink="http://www.w3.org/1999/xlink" x="0px" y="0px"
	 width="327.2px" height="327.2px" viewBox="0 0 327.2 327.2" style="enable-background:new 0 0 327.2 327.2;" xml:space="preserve"
	>
<style type="text/css">
	.st0{fill:#8E8E8E;}
</style>
<g>
	<path class="st0" d="M195.7,104.3c0-1.4-1.1-2.5-2.5-2.5h-69.9c-1.4,0-2.5,1.1-2.5,2.5s1.1,2.5,2.5,2.5h69.9
		C194.6,106.7,195.7,105.6,195.7,104.3z"/>
	<path class="st0" d="M115.3,106.7c1.4,0,2.5-1.1,2.5-2.5s-1.1-2.5-2.5-2.5h-4.2c-1.4,0-2.5,1.1-2.5,2.5s1.1,2.5,2.5,2.5H115.3z"/>
	<path class="st0" d="M103.1,106.7c1.4,0,2.5-1.1,2.5-2.5s-1.1-2.5-2.5-2.5h-3.4c-1.4,0-2.5,1.1-2.5,2.5s1.1,2.5,2.5,2.5H103.1z"/>
	<path class="st0" d="M140.5,154.3c1.4,0,2.5-1.1,2.5-2.5v-32.4c0-1.4-1.1-2.5-2.5-2.5H101c-1.4,0-2.5,1.1-2.5,2.5v61.9
		c0,1.4,1.1,2.5,2.5,2.5h39.5c1.4,0,2.5-1.1,2.5-2.5v-18.1c0-1.4-1.1-2.5-2.5-2.5s-2.5,1.1-2.5,2.5v15.6h-34.6v-57H138v30
		C138,153.2,139.1,154.3,140.5,154.3z"/>
	<path class="st0" d="M155.3,225.5h39.5c1.4,0,2.5-1.1,2.5-2.5v-23.8c0-1.4-1.1-2.5-2.5-2.5h-39.5c-1.4,0-2.5,1.1-2.5,2.5V223
		C152.9,224.4,154,225.5,155.3,225.5z M157.8,201.7h34.6v18.9h-34.6V201.7L157.8,201.7z"/>
	<path class="st0" d="M140.5,192.1H101c-1.4,0-2.5,1.1-2.5,2.5s1.1,2.5,2.5,2.5h39.5c1.4,0,2.5-1.1,2.5-2.5S141.9,192.1,140.5,192.1
		z"/>
	<path class="st0" d="M140.5,205.8H133c-1.4,0-2.5,1.1-2.5,2.5s1.1,2.5,2.5,2.5h7.5c1.4,0,2.5-1.1,2.5-2.5S141.9,205.8,140.5,205.8z
		"/>
	<path class="st0" d="M101,210.7h21.9c1.4,0,2.5-1.1,2.5-2.5s-1.1-2.5-2.5-2.5H101c-1.4,0-2.5,1.1-2.5,2.5
		C98.5,209.6,99.6,210.7,101,210.7z"/>
	<path class="st0" d="M101,224.4h39.5c1.4,0,2.5-1.1,2.5-2.5s-1.1-2.5-2.5-2.5H101c-1.4,0-2.5,1.1-2.5,2.5S99.6,224.4,101,224.4z"/>
	<path class="st0" d="M194.8,116.9h-18.4c-1.4,0-2.5,1.1-2.5,2.5c0,1.4,1.1,2.5,2.5,2.5h18.4c1.4,0,2.5-1.1,2.5-2.5
		C197.3,118,196.2,116.9,194.8,116.9z"/>
	<path class="st0" d="M155.3,116.9c-1.4,0-2.5,1.1-2.5,2.5c0,1.4,1.1,2.5,2.5,2.5h8.8c1.4,0,2.5-1.1,2.5-2.5c0-1.4-1.1-2.5-2.5-2.5
		H155.3z"/>
	<path class="st0" d="M194.8,130.6h-39.5c-1.4,0-2.5,1.1-2.5,2.5c0,1.4,1.1,2.5,2.5,2.5h39.5c1.4,0,2.5-1.1,2.5-2.5
		C197.3,131.7,196.2,130.6,194.8,130.6z"/>
	<path class="st0" d="M194.8,144.3h-39.5c-1.4,0-2.5,1.1-2.5,2.5c0,1.4,1.1,2.5,2.5,2.5h39.5c1.4,0,2.5-1.1,2.5-2.5
		S196.2,144.3,194.8,144.3z"/>
	<path class="st0" d="M194.8,157.2H184c-1.4,0-2.5,1.1-2.5,2.5s1.1,2.5,2.5,2.5h10.9c1.4,0,2.5-1.1,2.5-2.5S196.2,157.2,194.8,157.2
		z"/>
	<path class="st0" d="M155.3,162.2h18.5c1.4,0,2.5-1.1,2.5-2.5s-1.1-2.5-2.5-2.5h-18.5c-1.4,0-2.5,1.1-2.5,2.5
		S154,162.2,155.3,162.2z"/>
	<path class="st0" d="M194.8,170.9h-39.5c-1.4,0-2.5,1.1-2.5,2.5s1.1,2.5,2.5,2.5h39.5c1.4,0,2.5-1.1,2.5-2.5
		S196.2,170.9,194.8,170.9z"/>
	<path class="st0" d="M194.8,184.6h-39.5c-1.4,0-2.5,1.1-2.5,2.5s1.1,2.5,2.5,2.5h39.5c1.4,0,2.5-1.1,2.5-2.5
		S196.2,184.6,194.8,184.6z"/>
	<path class="st0" d="M216.6,197h10.9c1.4,0,2.5-1.1,2.5-2.5s-1.1-2.5-2.5-2.5h-10.9c-1.4,0-2.5,1.1-2.5,2.5S215.2,197,216.6,197z"
		/>
	<path class="st0" d="M86.7,205c1.4,0,2.5-1.1,2.5-2.5V87.7h118.1V118c0,1.4,1.1,2.5,2.5,2.5l0,0c1.4,0,2.5-1.1,2.5-2.5V85.2
		c0-1.4-1.1-2.5-2.5-2.5h-123c-1.4,0-2.5,1.1-2.5,2.5v117.3C84.2,203.9,85.3,205,86.7,205z"/>
	<path class="st0" d="M240.5,178h-28.4v-46.4c0-1.3-0.9-2.4-2.2-2.6c-1.5-0.1-2.7,1-2.7,2.5v95c0,5.1,2.1,9.7,5.5,13H102
		c-7.1,0-12.9-5.8-12.9-13v-13.2c0-1.4-1.1-2.5-2.5-2.5c-1.4,0-2.5,1.1-2.5,2.5v13.2c0,9.8,8,17.9,17.9,17.9h122.4c0,0,0.1,0,0.1,0
		c0.3,0,0.6,0,0.9,0c9.7-0.2,17.5-8.5,17.5-18.2v-45.8C243,179.1,241.9,178,240.5,178z M238.1,226.6c0,7.1-5.8,13-13,13
		s-13-5.8-13-13l0-2.1h15.3c1.4,0,2.5-1.1,2.5-2.5s-1.1-2.5-2.5-2.5h-15.3v-8.8h15.3c1.4,0,2.5-1.1,2.5-2.5s-1.1-2.5-2.5-2.5h-15.3
		V183H238L238.1,226.6L238.1,226.6z"/>
</g>
</svg>
