<?xml version="1.0" encoding="UTF-8" standalone="no"?>
<svg
   xmlns:dc="http://purl.org/dc/elements/1.1/"
   xmlns:cc="http://creativecommons.org/ns#"
   xmlns:rdf="http://www.w3.org/1999/02/22-rdf-syntax-ns#"
   xmlns:svg="http://www.w3.org/2000/svg"
   xmlns="http://www.w3.org/2000/svg"
   version="1.1"
   id="svg2"
   viewBox="0 0 744.09448819 1052.3622047"
   height="297mm"
   width="210mm">
  <defs
     id="defs4" />
  <metadata
     id="metadata7">
    <rdf:RDF>
      <cc:Work
         rdf:about="">
        <dc:format>image/svg+xml</dc:format>
        <dc:type
           rdf:resource="http://purl.org/dc/dcmitype/StillImage" />
        <dc:title></dc:title>
      </cc:Work>
    </rdf:RDF>
  </metadata>
  <g
     id="layer1">
    <g
       transform="matrix(10.958075,0,0,10.958075,-2924.5711,-3611.1807)"
       id="layer1-6">
      <g
         id="g4210"
         transform="matrix(-1,0,0,1,605.71428,0)">
        <g
           transform="translate(280.77714,353.13885)"
           id="g4181">
          <g
             id="g4137">
            <path
               style="fill:#010002"
               d="m 44.16,6.6 -32.568,0 -0.932,-5.421 -8.252,0 C 1.076,1.179 0,2.257 0,3.588 l 0,2.408 6.602,0 4.248,24.709 c 0.094,0.544 0.617,0.985 1.17,0.985 l 28.527,0 c 1.332,0 2.41,-1.077 2.41,-2.411 l 0,-2.406 -27.879,0 -0.587,-3.414 22.042,0 c 2.66,0 5.172,-2.128 5.611,-4.75 L 44.16,6.6 Z"
               id="path4139" />
            <circle
               style="fill:#010002"
               cx="19.469999"
               cy="38.817001"
               r="4.165"
               id="circle4141" />
            <path
               style="fill:#010002"
               d="m 29.762,38.816 c 0,2.299 1.863,4.164 4.162,4.164 2.301,0 4.168,-1.865 4.168,-4.164 0,-2.299 -1.867,-4.166 -4.168,-4.166 -2.299,0 -4.162,1.868 -4.162,4.166 z"
               id="path4143" />
          </g>
          <g
             id="g4145" />
          <g
             id="g4147" />
          <g
             id="g4149" />
          <g
             id="g4151" />
          <g
             id="g4153" />
          <g
             id="g4155" />
          <g
             id="g4157" />
          <g
             id="g4159" />
          <g
             id="g4161" />
          <g
             id="g4163" />
          <g
             id="g4165" />
          <g
             id="g4167" />
          <g
             id="g4169" />
          <g
             id="g4171" />
          <g
             id="g4173" />
        </g>
        <g
           transform="translate(0.26785714,0.17857143)"
           id="g4206">
          <path
             style="fill:#ffffff;fill-rule:evenodd;stroke:#ffffff;stroke-width:1.69433022;stroke-linecap:round;stroke-linejoin:round;stroke-miterlimit:4;stroke-dasharray:none;stroke-opacity:1"
             d="m 302.60792,367.54078 8.50567,0"
             id="path4202" />
          <path
             id="path4204"
             d="m 306.86075,363.28795 0,8.50566"
             style="fill:#ffffff;fill-rule:evenodd;stroke:#ffffff;stroke-width:1.69433022;stroke-linecap:round;stroke-linejoin:round;stroke-miterlimit:4;stroke-dasharray:none;stroke-opacity:1" />
        </g>
      </g>
    </g>
  </g>
</svg>
